<svg width="7" height="7" viewBox="0 0 7 7" fill="none" xmlns="http://www.w3.org/2000/svg">
<path d="M0.746187 6.00878C0.76645 6.01406 0.787977 6.01114 0.806103 6.00066C0.824229 5.99017 0.837492 5.97297 0.843019 5.95277C1.00599 5.34472 1.6683 5.18714 2.06417 5.09284C2.16338 5.06926 2.2417 5.05059 2.29265 5.0286C2.74358 4.83288 2.89056 4.51802 2.93455 4.28828C2.93717 4.27461 2.93613 4.26049 2.93155 4.24735C2.92696 4.23421 2.91899 4.22252 2.90844 4.21344C2.67364 4.01076 2.47555 3.7065 2.35055 3.35651C2.34703 3.34647 2.34148 3.33727 2.33426 3.32946C2.16892 3.14972 2.07398 2.95969 2.07398 2.80827C2.07398 2.71983 2.10737 2.66049 2.18252 2.61572C2.19378 2.60899 2.20319 2.59956 2.2099 2.5883C2.21661 2.57703 2.22042 2.56427 2.22097 2.55116C2.25594 1.74518 2.82997 1.11071 3.53405 1.1066L3.55098 1.10771C4.25855 1.11752 4.82894 1.76559 4.84935 2.58297C4.84963 2.59414 4.85229 2.60512 4.85715 2.61519C4.862 2.62525 4.86895 2.63417 4.87751 2.64135C4.92704 2.68328 4.95014 2.73644 4.95014 2.80859C4.95014 2.93533 4.88258 3.09117 4.76011 3.24718C4.75428 3.25469 4.74978 3.26314 4.74682 3.27218C4.62024 3.67343 4.39304 4.02769 4.12374 4.24445C4.11259 4.25346 4.10408 4.26532 4.09912 4.27878C4.09416 4.29223 4.09294 4.30678 4.09558 4.32087C4.13957 4.55045 4.28655 4.86515 4.73749 5.06119C4.79081 5.08429 4.87356 5.10233 4.97846 5.12495C5.37037 5.20976 6.0262 5.352 6.18711 5.95277C6.18981 5.96281 6.19447 5.97221 6.2008 5.98045C6.20714 5.98869 6.21503 5.9956 6.22404 6.00078C6.23305 6.00597 6.24299 6.00933 6.25329 6.01068C6.2636 6.01202 6.27407 6.01132 6.2841 6.00862C6.29414 6.00592 6.30354 6.00127 6.31178 5.99493C6.32002 5.9886 6.32693 5.9807 6.33212 5.97169C6.3373 5.96269 6.34066 5.95275 6.34201 5.94244C6.34335 5.93214 6.34266 5.92167 6.33995 5.91163C6.15404 5.21751 5.41104 5.0566 5.012 4.97021C4.91944 4.95012 4.83954 4.93287 4.80062 4.91579C4.50632 4.78794 4.325 4.59317 4.26092 4.3359C4.53417 4.10126 4.7628 3.73925 4.89349 3.33325C5.03225 3.15288 5.10852 2.96713 5.10852 2.80843C5.10852 2.70258 5.07434 2.61429 5.00662 2.54531C4.96896 1.65863 4.33624 0.960403 3.55098 0.949169L3.52741 0.948853C2.75639 0.952966 2.12097 1.63284 2.06544 2.50417C1.96639 2.57695 1.91608 2.67901 1.91608 2.80859C1.91608 2.99577 2.02193 3.21965 2.20721 3.42502C2.33521 3.77675 2.53362 4.08575 2.76984 4.30204C2.70608 4.56026 2.5246 4.75567 2.22967 4.88367C2.19154 4.90028 2.1156 4.91848 2.02762 4.93936C1.62558 5.03493 0.877511 5.21293 0.690176 5.91195C0.684766 5.93222 0.687628 5.9538 0.698131 5.97196C0.708635 5.99012 0.72592 6.00337 0.746187 6.00878Z" fill="black" fill-opacity="0.65"/>
</svg>
