<svg width="20" height="20" viewBox="0 0 20 20" fill="none" xmlns="http://www.w3.org/2000/svg">
<g id="arrow_drop_down">
<mask id="mask0_10191_2876" style="mask-type:alpha" maskUnits="userSpaceOnUse" x="0" y="0" width="20" height="20">
<rect id="Bounding box" width="20" height="20" fill="#D9D9D9"/>
</mask>
<g mask="url(#mask0_10191_2876)">
<path id="arrow_drop_down_2" d="M9.52416 11.4102L8.09145 9.97756C7.8671 9.7532 7.81181 9.49252 7.92559 9.19552C8.03937 8.89851 8.26026 8.75 8.58826 8.75H11.5065C11.8206 8.75 12.0346 8.89851 12.1484 9.19552C12.2621 9.49252 12.2068 9.7532 11.9825 9.97756L10.5498 11.4102C10.4771 11.4829 10.3959 11.5382 10.3062 11.5761C10.2165 11.6141 10.1267 11.633 10.037 11.633C9.94723 11.633 9.85749 11.6141 9.76774 11.5761C9.678 11.5382 9.59681 11.4829 9.52416 11.4102Z" fill="#BF01FE"/>
</g>
</g>
</svg>
