<svg width="8" height="8" viewBox="0 0 12 14" fill="none" xmlns="http://www.w3.org/2000/svg">
<path d="M7.5 4.2H4.5V2.8H7.5V4.2ZM12 1.4V12.6C12 13.377 11.3325 14 10.5 14H1.5C0.6675 14 0 13.377 0 12.6V1.4C0 1.0287 0.158035 0.672601 0.43934 0.41005C0.720644 0.1475 1.10218 0 1.5 0H10.5C10.8978 0 11.2794 0.1475 11.5607 0.41005C11.842 0.672601 12 1.0287 12 1.4ZM10.7867 7.7H1.06951L1.06547 12.8763H10.7867V7.7ZM10.7867 1.13715H1.06951V6.55098H10.7867V1.13715ZM7.5 9.1H4.5V10.5H7.5V9.1Z" fill="black" fill-opacity="0.65"/>
<path d="M11.1867 7.7V7.3H10.7867H1.06951H0.669821L0.669509 7.69969L0.665468 12.876L0.665173 13.2533C0.497654 13.0749 0.4 12.8439 0.4 12.6V1.4C0.4 1.16259 0.493509 0.92896 0.669509 0.744729V1.13715V6.55098V6.95098H1.06951H10.7867H11.1867V6.55098V1.13715V0.737149H10.7867H1.06951H0.676824C0.688298 0.725379 0.700113 0.713816 0.712267 0.702473C0.916776 0.511598 1.1997 0.4 1.5 0.4H10.5C10.8003 0.4 11.0832 0.511598 11.2877 0.702472C11.4913 0.892477 11.6 1.14404 11.6 1.4V12.6C11.6 13.1305 11.138 13.6 10.5 13.6H1.5C1.16808 13.6 0.883811 13.4729 0.687441 13.2763H1.06547H10.7867H11.1867V12.8763V7.7ZM7.1 3.8H4.9V3.2H7.1V3.8ZM4.9 10.1V9.5H7.1V10.1H4.9Z" stroke="black" stroke-opacity="0.65" stroke-width="0.8"/>
</svg>
