<svg width="20" height="20" viewBox="0 0 20 20" fill="none" xmlns="http://www.w3.org/2000/svg">
<g id="calendar">
<mask id="mask0_10191_1477" style="mask-type:alpha" maskUnits="userSpaceOnUse" x="0" y="0" width="20" height="20">
<rect id="Bounding box" width="20" height="20" fill="#D9D9D9"/>
</mask>
<g mask="url(#mask0_10191_1477)">
<path id="calendar_month" d="M4.7565 17.5831C4.38139 17.5831 4.06432 17.4511 3.80529 17.1873C3.54626 16.9234 3.41675 16.6087 3.41675 16.2433V5.75621C3.41675 5.39082 3.54626 5.07618 3.80529 4.81229C4.06432 4.5484 4.38139 4.41646 4.7565 4.41646H6.57702V2.87798C6.57702 2.71891 6.62978 2.5862 6.73529 2.47983C6.8408 2.37349 6.97248 2.32031 7.13031 2.32031C7.28814 2.32031 7.42128 2.37349 7.52973 2.47983C7.63816 2.5862 7.69237 2.71891 7.69237 2.87798V4.41646H12.3398V2.86196C12.3398 2.70822 12.3912 2.57951 12.4941 2.47583C12.5969 2.37215 12.7246 2.32031 12.8771 2.32031C13.0295 2.32031 13.1587 2.37215 13.2644 2.47583C13.3702 2.57951 13.4231 2.70822 13.4231 2.86196V4.41646H15.2436C15.6187 4.41646 15.9358 4.5484 16.1948 4.81229C16.4539 5.07618 16.5834 5.39082 16.5834 5.75621V16.2433C16.5834 16.6087 16.4539 16.9234 16.1948 17.1873C15.9358 17.4511 15.6187 17.5831 15.2436 17.5831H4.7565ZM4.7565 16.4998H15.2436C15.3077 16.4998 15.3665 16.4731 15.4199 16.4196C15.4734 16.3662 15.5001 16.3074 15.5001 16.2433V9.25621H4.50006V16.2433C4.50006 16.3074 4.52677 16.3662 4.58019 16.4196C4.63362 16.4731 4.69239 16.4998 4.7565 16.4998ZM4.50006 8.1729H15.5001V5.75621C15.5001 5.6921 15.4734 5.63333 15.4199 5.5799C15.3665 5.52648 15.3077 5.49977 15.2436 5.49977H4.7565C4.69239 5.49977 4.63362 5.52648 4.58019 5.5799C4.52677 5.63333 4.50006 5.6921 4.50006 5.75621V8.1729ZM10.0045 12.0639C9.82525 12.0639 9.67074 12.0004 9.54094 11.8736C9.41113 11.7467 9.34623 11.5936 9.34623 11.4144C9.34623 11.2352 9.40967 11.0807 9.53654 10.9509C9.66343 10.8211 9.81647 10.7562 9.99566 10.7562C10.1749 10.7562 10.3294 10.8196 10.4592 10.9465C10.589 11.0734 10.6539 11.2265 10.6539 11.4056C10.6539 11.5849 10.5905 11.7394 10.4636 11.8692C10.3367 11.999 10.1837 12.0639 10.0045 12.0639ZM6.75446 12.0639C6.57525 12.0639 6.42074 12.0004 6.29094 11.8736C6.16113 11.7467 6.09623 11.5936 6.09623 11.4144C6.09623 11.2352 6.15966 11.0807 6.28654 10.9509C6.41343 10.8211 6.56647 10.7562 6.74566 10.7562C6.92487 10.7562 7.07938 10.8196 7.20919 10.9465C7.33899 11.0734 7.40389 11.2265 7.40389 11.4056C7.40389 11.5849 7.34046 11.7394 7.21358 11.8692C7.08669 11.999 6.93365 12.0639 6.75446 12.0639ZM13.2545 12.0639C13.0752 12.0639 12.9207 12.0004 12.7909 11.8736C12.6611 11.7467 12.5962 11.5936 12.5962 11.4144C12.5962 11.2352 12.6597 11.0807 12.7865 10.9509C12.9134 10.8211 13.0665 10.7562 13.2457 10.7562C13.4249 10.7562 13.5794 10.8196 13.7092 10.9465C13.839 11.0734 13.9039 11.2265 13.9039 11.4056C13.9039 11.5849 13.8405 11.7394 13.7136 11.8692C13.5867 11.999 13.4337 12.0639 13.2545 12.0639ZM10.0045 14.9998C9.82525 14.9998 9.67074 14.9363 9.54094 14.8094C9.41113 14.6826 9.34623 14.5295 9.34623 14.3503C9.34623 14.1711 9.40967 14.0166 9.53654 13.8868C9.66343 13.757 9.81647 13.6921 9.99566 13.6921C10.1749 13.6921 10.3294 13.7555 10.4592 13.8824C10.589 14.0093 10.6539 14.1623 10.6539 14.3415C10.6539 14.5208 10.5905 14.6753 10.4636 14.8051C10.3367 14.9349 10.1837 14.9998 10.0045 14.9998ZM6.75446 14.9998C6.57525 14.9998 6.42074 14.9363 6.29094 14.8094C6.16113 14.6826 6.09623 14.5295 6.09623 14.3503C6.09623 14.1711 6.15966 14.0166 6.28654 13.8868C6.41343 13.757 6.56647 13.6921 6.74566 13.6921C6.92487 13.6921 7.07938 13.7555 7.20919 13.8824C7.33899 14.0093 7.40389 14.1623 7.40389 14.3415C7.40389 14.5208 7.34046 14.6753 7.21358 14.8051C7.08669 14.9349 6.93365 14.9998 6.75446 14.9998ZM13.2545 14.9998C13.0752 14.9998 12.9207 14.9363 12.7909 14.8094C12.6611 14.6826 12.5962 14.5295 12.5962 14.3503C12.5962 14.1711 12.6597 14.0166 12.7865 13.8868C12.9134 13.757 13.0665 13.6921 13.2457 13.6921C13.4249 13.6921 13.5794 13.7555 13.7092 13.8824C13.839 14.0093 13.9039 14.1623 13.9039 14.3415C13.9039 14.5208 13.8405 14.6753 13.7136 14.8051C13.5867 14.9349 13.4337 14.9998 13.2545 14.9998Z" fill="#919191"/>
</g>
</g>
</svg>
