<svg width="20" height="20" viewBox="0 0 20 20" fill="none" xmlns="http://www.w3.org/2000/svg">
<g id="filter_alt">
<mask id="mask0_10191_2908" style="mask-type:alpha" maskUnits="userSpaceOnUse" x="0" y="0" width="20" height="20">
<rect id="Bounding box" width="20" height="20" fill="#D9D9D9"/>
</mask>
<g mask="url(#mask0_10191_2908)">
<path id="filter_alt_2" d="M9.82423 15.5826C9.70962 15.5826 9.61305 15.5441 9.53452 15.4669C9.456 15.3898 9.41673 15.2937 9.41673 15.1788V10.6259L4.68919 4.908C4.61227 4.80543 4.60122 4.69779 4.65604 4.58508C4.71088 4.47237 4.80045 4.41602 4.92475 4.41602H15.0753C15.1996 4.41602 15.2892 4.47237 15.344 4.58508C15.3989 4.69779 15.3878 4.80543 15.3109 4.908L10.5834 10.6259V15.1788C10.5834 15.2937 10.5449 15.3898 10.468 15.4669C10.3911 15.5441 10.2953 15.5826 10.1807 15.5826H9.82423ZM10 9.62433L13.375 5.49933H6.60421L10 9.62433Z" fill="#424242"/>
</g>
</g>
</svg>
