<svg width="12" height="8" viewBox="0 0 12 8" fill="none" xmlns="http://www.w3.org/2000/svg">
<path d="M0.875845 7.41346C0.753267 7.29521 0.691978 7.1447 0.691978 6.96195C0.691978 6.77919 0.753267 6.62869 0.875845 6.51044L3.4667 3.99488L0.875845 1.47933C0.753267 1.36107 0.689304 1.21315 0.683955 1.03556C0.67816 0.858391 0.742123 0.705307 0.875845 0.576305C0.998423 0.458052 1.15443 0.398926 1.34387 0.398926C1.53331 0.398926 1.68932 0.458052 1.8119 0.576305L4.88749 3.54337C4.95435 3.60787 5.00182 3.67775 5.0299 3.753C5.05754 3.82825 5.07136 3.90888 5.07136 3.99488C5.07136 4.08088 5.05754 4.16151 5.0299 4.23676C5.00182 4.31201 4.95435 4.38189 4.88749 4.44639L1.8119 7.41346C1.68932 7.53171 1.53598 7.59342 1.35189 7.59858C1.16825 7.60417 1.00957 7.54246 0.875845 7.41346ZM5.28865 7.41346C5.16608 7.29521 5.10479 7.1447 5.10479 6.96195C5.10479 6.77919 5.16608 6.62869 5.28865 6.51044L7.87951 3.99488L5.28865 1.47933C5.16608 1.36107 5.10189 1.21315 5.0961 1.03556C5.09075 0.858391 5.15493 0.705307 5.28865 0.576305C5.41123 0.458052 5.56724 0.398926 5.75668 0.398926C5.94612 0.398926 6.10213 0.458052 6.2247 0.576305L9.3003 3.54337C9.36716 3.60787 9.41441 3.67775 9.44204 3.753C9.47013 3.82825 9.48417 3.90888 9.48417 3.99488C9.48417 4.08088 9.47013 4.16151 9.44204 4.23676C9.41441 4.31201 9.36716 4.38189 9.3003 4.44639L6.2247 7.41346C6.10213 7.53171 5.94902 7.59342 5.76537 7.59858C5.58128 7.60417 5.42238 7.54246 5.28865 7.41346Z" fill="black" fill-opacity="0.65"/>
<line x1="0.54" y1="-0.54" x2="6.66" y2="-0.54" transform="matrix(-8.396e-05 -1 1 -5.37274e-05 11.6836 7.59863)" stroke="black" stroke-opacity="0.65" stroke-width="1.08" stroke-linecap="round"/>
</svg>
