<svg width="20" height="20" viewBox="0 0 20 20" fill="none" xmlns="http://www.w3.org/2000/svg">
<g id="layers">
<mask id="mask0_10191_2903" style="mask-type:alpha" maskUnits="userSpaceOnUse" x="0" y="0" width="20" height="20">
<rect id="Bounding box" width="20" height="20" fill="#D9D9D9"/>
</mask>
<g mask="url(#mask0_10191_2903)">
<path id="layers_2" d="M9.9993 16.2458C9.82138 16.2458 9.64702 16.2209 9.47621 16.171C9.30541 16.1211 9.15096 16.0387 9.01288 15.9237L3.79015 11.8372C3.6128 11.6994 3.52146 11.5263 3.51611 11.318C3.51076 11.1097 3.59482 10.9331 3.7683 10.7882C3.88756 10.6916 4.02978 10.6433 4.19494 10.6433C4.3601 10.6433 4.5008 10.6925 4.61705 10.7907L9.83978 14.8436C9.88786 14.881 9.94128 14.8997 10 14.8997C10.0588 14.8997 10.1122 14.881 10.1603 14.8436L15.383 10.7907C15.4993 10.6925 15.64 10.6433 15.8052 10.6433C15.9703 10.6433 16.1125 10.6916 16.2318 10.7882C16.4053 10.9331 16.4893 11.1097 16.484 11.318C16.4786 11.5263 16.3873 11.6994 16.2099 11.8372L10.9872 15.9237C10.8487 16.0387 10.6938 16.1211 10.5228 16.171C10.3517 16.2209 10.1772 16.2458 9.9993 16.2458ZM9.99957 12.3212C9.82111 12.3212 9.64657 12.2928 9.47594 12.2359C9.30532 12.1791 9.15096 12.0932 9.01288 11.9782L3.98715 8.05354C3.88787 7.97879 3.80966 7.88622 3.7525 7.77585C3.69534 7.66549 3.66675 7.55187 3.66675 7.435C3.66675 7.31722 3.69534 7.2027 3.7525 7.09145C3.80966 6.98022 3.88745 6.88752 3.98588 6.81335L9.00923 2.89279C9.14842 2.77779 9.3038 2.69171 9.4754 2.63456C9.64701 2.5774 9.82205 2.54883 10.0005 2.54883C10.179 2.54883 10.3535 2.57724 10.5242 2.63408C10.6948 2.69092 10.8491 2.77682 10.9872 2.89177L16.0129 6.81645C16.1122 6.89122 16.1904 6.98379 16.2476 7.09416C16.3048 7.20452 16.3333 7.31813 16.3333 7.435C16.3333 7.55279 16.3048 7.66731 16.2476 7.77856C16.1904 7.88979 16.1126 7.98249 16.0142 8.05666L10.9909 11.9772C10.8517 12.0922 10.6963 12.1783 10.5247 12.2355C10.3531 12.2926 10.178 12.3212 9.99957 12.3212ZM9.83978 10.9398C9.88786 10.9772 9.94128 10.9959 10 10.9959C10.0588 10.9959 10.1122 10.9772 10.1603 10.9398L14.6459 7.435L10.1603 3.9302C10.1122 3.89281 10.0588 3.87412 10 3.87412C9.94128 3.87412 9.88786 3.89281 9.83978 3.9302L5.35421 7.435L9.83978 10.9398Z" fill="#BF01FE"/>
</g>
</g>
</svg>
