<svg width="20" height="20" viewBox="0 0 20 20" fill="none" xmlns="http://www.w3.org/2000/svg">
<g id="list">
<mask id="mask0_10191_2872" style="mask-type:alpha" maskUnits="userSpaceOnUse" x="0" y="0" width="20" height="20">
<rect id="Bounding box" width="20" height="20" fill="#D9D9D9"/>
</mask>
<g mask="url(#mask0_10191_2872)">
<path id="format_list_bulleted" d="M8.29814 14.7924C8.14467 14.7924 8.01603 14.7409 7.91221 14.6379C7.8084 14.5348 7.7565 14.4072 7.7565 14.2549C7.7565 14.1026 7.8084 13.9735 7.91221 13.8678C8.01603 13.762 8.14467 13.7091 8.29814 13.7091H16.0417C16.1952 13.7091 16.3238 13.7606 16.4276 13.8637C16.5315 13.9667 16.5834 14.0944 16.5834 14.2467C16.5834 14.399 16.5315 14.528 16.4276 14.6338C16.3238 14.7395 16.1952 14.7924 16.0417 14.7924H8.29814ZM8.29814 10.5424C8.14467 10.5424 8.01603 10.4909 7.91221 10.3879C7.8084 10.2848 7.7565 10.1572 7.7565 10.0049C7.7565 9.85257 7.8084 9.72353 7.91221 9.61777C8.01603 9.51201 8.14467 9.45913 8.29814 9.45913H16.0417C16.1952 9.45913 16.3238 9.51064 16.4276 9.61367C16.5315 9.71669 16.5834 9.84436 16.5834 9.99667C16.5834 10.149 16.5315 10.278 16.4276 10.3838C16.3238 10.4895 16.1952 10.5424 16.0417 10.5424H8.29814ZM8.29814 6.29242C8.14467 6.29242 8.01603 6.2409 7.91221 6.13787C7.8084 6.03485 7.7565 5.90718 7.7565 5.75488C7.7565 5.60257 7.8084 5.47354 7.91221 5.36777C8.01603 5.26201 8.14467 5.20912 8.29814 5.20912H16.0417C16.1952 5.20912 16.3238 5.26064 16.4276 5.36367C16.5315 5.46669 16.5834 5.59436 16.5834 5.74667C16.5834 5.89897 16.5315 6.02801 16.4276 6.13377C16.3238 6.23953 16.1952 6.29242 16.0417 6.29242H8.29814ZM4.63187 15.4703C4.29528 15.4703 4.00861 15.3505 3.77187 15.1108C3.53512 14.8711 3.41675 14.5829 3.41675 14.2464C3.41675 13.9098 3.5366 13.6231 3.77629 13.3864C4.01598 13.1496 4.30412 13.0312 4.64071 13.0312C4.9773 13.0312 5.26397 13.1511 5.50071 13.3908C5.73744 13.6305 5.85581 13.9186 5.85581 14.2552C5.85581 14.5918 5.73597 14.8785 5.49629 15.1152C5.2566 15.3519 4.96846 15.4703 4.63187 15.4703ZM4.63187 11.2203C4.29528 11.2203 4.00861 11.1005 3.77187 10.8608C3.53512 10.6211 3.41675 10.3329 3.41675 9.99635C3.41675 9.65976 3.5366 9.37309 3.77629 9.13635C4.01598 8.89962 4.30412 8.78125 4.64071 8.78125C4.9773 8.78125 5.26397 8.90109 5.50071 9.14077C5.73744 9.38046 5.85581 9.6686 5.85581 10.0052C5.85581 10.3418 5.73597 10.6285 5.49629 10.8652C5.2566 11.1019 4.96846 11.2203 4.63187 11.2203ZM4.63187 6.97029C4.29528 6.97029 4.00861 6.85045 3.77187 6.61077C3.53512 6.37108 3.41675 6.08294 3.41675 5.74635C3.41675 5.40976 3.5366 5.12309 3.77629 4.88635C4.01598 4.64962 4.30412 4.53125 4.64071 4.53125C4.9773 4.53125 5.26397 4.65109 5.50071 4.89077C5.73744 5.13046 5.85581 5.4186 5.85581 5.75519C5.85581 6.09178 5.73597 6.37845 5.49629 6.61519C5.2566 6.85192 4.96846 6.97029 4.63187 6.97029Z" fill="#BF01FE"/>
</g>
</g>
</svg>
