<svg width="20" height="20" viewBox="0 0 20 20" fill="none" xmlns="http://www.w3.org/2000/svg">
<rect x="0.25" y="0.25" width="19.5" height="19.5" rx="2.75" fill="white"/>
<path d="M8.30765 13.7387L15.0656 6.98075L14.3205 6.20673L8.31567 12.1987L5.8365 9.7484L5.09131 10.4936L8.30765 13.7387ZM7.55446 14.5047L4.32531 11.2756C4.20994 11.1602 4.12687 11.0376 4.07612 10.9078C4.02537 10.778 4 10.6399 4 10.4936C4 10.3472 4.02537 10.2105 4.07612 10.0833C4.12687 9.95619 4.20994 9.83493 4.32531 9.71954L5.06248 8.9824C5.17785 8.86701 5.30044 8.78528 5.43025 8.73721C5.56006 8.68913 5.69547 8.66508 5.8365 8.66508C5.97751 8.66508 6.11292 8.68565 6.24273 8.72679C6.37253 8.76792 6.49512 8.84617 6.6105 8.96156L8.30765 10.6587L13.5545 5.44073C13.6752 5.32534 13.7991 5.24227 13.9263 5.19152C14.0534 5.14079 14.1901 5.11542 14.3365 5.11542C14.4829 5.11542 14.6196 5.14079 14.7467 5.19152C14.8739 5.24227 14.9951 5.32801 15.1105 5.44873L15.8605 6.20673C15.9759 6.3221 16.0576 6.4447 16.1057 6.5745C16.1538 6.70431 16.1778 6.83972 16.1778 6.98075C16.1778 7.12176 16.1524 7.25717 16.1017 7.38698C16.0509 7.51679 15.9679 7.63938 15.8525 7.75475L9.1025 14.5047C8.98711 14.6201 8.86585 14.7018 8.73873 14.7499C8.61159 14.798 8.47484 14.822 8.32848 14.822C8.18212 14.822 8.04537 14.798 7.91823 14.7499C7.7911 14.7018 7.66985 14.6201 7.55446 14.5047Z" fill="#424242"/>
<rect x="0.25" y="0.25" width="19.5" height="19.5" rx="2.75" stroke="#B2B2B2" stroke-width="0.5"/>
</svg>
