<svg width="10" height="10" viewBox="0 0 10 10" fill="none" xmlns="http://www.w3.org/2000/svg">
<path d="M1 2C1 1.73478 1.10536 1.48043 1.29289 1.29289C1.48043 1.10536 1.73478 1 2 1H7C7.26522 1 7.51957 1.10536 7.70711 1.29289C7.89464 1.48043 8 1.73478 8 2V7C8 7.26522 7.89464 7.51957 7.70711 7.70711C7.51957 7.89464 7.26522 8 7 8H2C1.73478 8 1.48043 7.89464 1.29289 7.70711C1.10536 7.51957 1 7.26522 1 7V2ZM2 1.5C1.86739 1.5 1.74021 1.55268 1.64645 1.64645C1.55268 1.74021 1.5 1.86739 1.5 2V7C1.5 7.13261 1.55268 7.25979 1.64645 7.35355C1.74021 7.44732 1.86739 7.5 2 7.5H7C7.13261 7.5 7.25979 7.44732 7.35355 7.35355C7.44732 7.25979 7.5 7.13261 7.5 7V2C7.5 1.86739 7.44732 1.74021 7.35355 1.64645C7.25979 1.55268 7.13261 1.5 7 1.5H2ZM3 9C2.82447 9 2.65203 8.95379 2.50001 8.86602C2.348 8.77825 2.22177 8.65202 2.134 8.5H7C7.39782 8.5 7.77936 8.34196 8.06066 8.06066C8.34196 7.77936 8.5 7.39782 8.5 7V2.134C8.65202 2.22177 8.77825 2.348 8.86602 2.50001C8.95379 2.65203 9 2.82447 9 3V7C9 7.53043 8.78929 8.03914 8.41421 8.41421C8.03914 8.78929 7.53043 9 7 9H3ZM6.188 3.665C6.20967 3.64031 6.22626 3.6116 6.23683 3.5805C6.2474 3.54939 6.25174 3.51652 6.24961 3.48374C6.24747 3.45096 6.2389 3.41892 6.22438 3.38945C6.20987 3.35999 6.18969 3.33367 6.165 3.312C6.14031 3.29033 6.1116 3.27374 6.0805 3.26317C6.04939 3.2526 6.01652 3.24826 5.98374 3.25039C5.95096 3.25253 5.91892 3.2611 5.88945 3.27562C5.85999 3.29013 5.83367 3.31031 5.812 3.335L4.238 5.134L3.427 4.323C3.40376 4.29976 3.37616 4.28132 3.34579 4.26874C3.31542 4.25616 3.28287 4.24968 3.25 4.24968C3.21713 4.24968 3.18458 4.25616 3.15421 4.26874C3.12384 4.28132 3.09624 4.29976 3.073 4.323C3.04976 4.34624 3.03132 4.37384 3.01874 4.40421C3.00616 4.43458 2.99968 4.46713 2.99968 4.5C2.99968 4.53287 3.00616 4.56542 3.01874 4.59579C3.03132 4.62616 3.04976 4.65376 3.073 4.677L4.073 5.677C4.09723 5.7012 4.12617 5.72016 4.15803 5.73271C4.18989 5.74526 4.22399 5.75113 4.25821 5.74996C4.29243 5.74878 4.32605 5.74059 4.35698 5.72589C4.38791 5.71119 4.41548 5.6903 4.438 5.6645L6.188 3.665Z" fill="white"/>
</svg>
