<svg width="470" height="332" viewBox="0 0 470 332" fill="none" xmlns="http://www.w3.org/2000/svg">
<g clip-path="url(#clip0_5311_36938)">
<path d="M232.526 169.607H198.231C197.101 169.607 196.186 170.523 196.186 171.652V171.653C196.186 172.782 197.101 173.698 198.231 173.698H232.526C233.656 173.698 234.571 172.782 234.571 171.653V171.652C234.571 170.523 233.656 169.607 232.526 169.607Z" fill="#DEE8F5"/>
<path d="M190.859 170.741C192.781 171.103 204.405 173.132 205.17 171.586C205.632 170.661 201.06 168.602 201.06 168.602" fill="#E98862"/>
<path d="M193.997 162.144C193.997 162.144 210.666 159.773 216.972 167.251C217.132 167.442 217.232 167.676 217.257 167.924C217.282 168.172 217.231 168.422 217.112 168.641C216.993 168.859 216.811 169.037 216.589 169.151C216.367 169.264 216.116 169.308 215.869 169.277C210.789 168.625 203.212 168.524 200.861 171.233C199.492 172.81 192.508 171.054 192.508 171.054" fill="#E98862"/>
<path d="M300.607 81.9849H216.693C213.019 81.9849 210.041 84.963 210.041 88.6368V152.499C210.041 156.173 213.019 159.151 216.693 159.151H300.607C304.281 159.151 307.259 156.173 307.259 152.499V88.6368C307.259 84.963 304.281 81.9849 300.607 81.9849Z" fill="#F3F5FD"/>
<path d="M269.767 146.793H247.531V171.964H269.767V146.793Z" fill="#F3F5FD"/>
<path d="M279.204 167.288H240.398C238.691 167.288 237.307 168.672 237.307 170.38V170.38C237.307 172.088 238.691 173.472 240.398 173.472H279.204C280.912 173.472 282.296 172.088 282.296 170.38V170.38C282.296 168.672 280.912 167.288 279.204 167.288Z" fill="#F3F5FD"/>
<path d="M469.142 331.007H0C5.14074 320.317 14.6339 311.25 28.0164 308.559C47.5928 304.628 68.3097 315.435 87.8426 311.372C98.9401 309.066 107.676 302.344 116.857 296.764C151.491 275.708 198.951 269.484 239.938 280.628C261.359 286.451 280.879 296.634 302.824 300.963C331.2 306.563 360.876 301.919 390.057 301.154C418.475 300.409 459.197 309.853 469.142 331.007Z" fill="#F3F5FD"/>
<path d="M91.4917 228.255L64.5977 330.5L68.4318 331.508L95.3259 229.263L91.4917 228.255Z" fill="#C1D8ED"/>
<path d="M139.151 228.451L135.234 229.065L151.266 331.311L155.183 330.697L139.151 228.451Z" fill="#C1D8ED"/>
<path d="M87.8914 130.68C87.8914 130.68 55.1406 128.612 55.1406 157.226C55.1406 185.84 59.9642 225.83 84.0993 230.312C108.234 234.793 143.886 233.442 152.163 232.04C162.333 230.316 166.766 206.725 153.22 205.147C114.781 200.665 133.398 133.783 87.8914 130.68Z" fill="#C1D8ED"/>
<path d="M150.5 311.217L149.254 327.379L163.089 328.445L164.335 312.284L150.5 311.217Z" fill="#E98862"/>
<path d="M180.669 330.883C181.025 330.882 181.378 330.81 181.706 330.672C182.035 330.534 182.333 330.333 182.584 330.08C182.835 329.827 183.034 329.527 183.169 329.197C183.304 328.867 183.372 328.514 183.371 328.158C183.371 328.092 183.371 328.026 183.362 327.959C183.322 327.444 183.135 326.95 182.824 326.537C182.513 326.124 182.09 325.809 181.606 325.628L165.456 320.217C165.143 320.113 164.812 320.078 164.484 320.115C164.157 320.151 163.841 320.258 163.558 320.428C161.338 321.969 158.682 322.756 155.981 322.675C153.877 322.525 151.857 321.787 150.153 320.545C150.003 320.422 149.821 320.345 149.629 320.321C149.437 320.298 149.242 320.33 149.067 320.413C148.892 320.496 148.744 320.627 148.64 320.791C148.537 320.954 148.482 321.144 148.482 321.338V329.235C148.482 329.705 148.669 330.155 149.001 330.487C149.333 330.818 149.783 331.005 150.252 331.005H150.259L180.669 330.883Z" fill="#C1D8ED"/>
<path d="M219.301 310.599L205.617 312.901L208.335 329.063L222.019 326.761L219.301 310.599Z" fill="#E98862"/>
<path d="M226.372 314.137L195.906 196.927C195.225 194.308 193.694 191.989 191.554 190.334C189.414 188.678 186.784 187.78 184.078 187.779H117.309V187.822H79.9043V199.286C79.9042 202.591 80.5551 205.864 81.8197 208.917C83.0844 211.97 84.9381 214.745 87.2749 217.082C89.6118 219.419 92.3861 221.273 95.4394 222.537C98.4927 223.802 101.765 224.453 105.07 224.453H123.314V224.525H155.163L146.393 317.767L170.734 320.056L179.214 229.891L202.711 320.287L226.372 314.137Z" fill="#262626"/>
<path d="M159.191 171.012L196.629 173.008L196.845 160.201L155.181 157.314L135.939 120.568C133.859 115.456 129.55 112.468 121.792 112.134C121.376 112.121 120.709 112.101 119.85 112.088C119.678 115.722 97.1657 115.709 96.69 112.002C90.3334 112.009 85.1134 113.964 82.1003 116.978C71.6933 127.385 84.4659 145.119 84.4659 158.995C84.4659 172.871 78.1886 179.096 78.6511 186.219C79.378 197.412 133.779 194.769 136.547 188.406C138.404 184.143 136.605 180.939 135.189 173.316H159.19L159.191 171.012ZM133.865 156.352C133.892 154.018 134.073 151.575 134.32 149.089L139.805 158.908H133.87C133.861 158.082 133.858 157.237 133.87 156.352H133.865Z" fill="#367CFF"/>
<path d="M119.851 112.088C119.679 115.722 117.697 121.068 111.605 121.464C103.471 122.006 97.1672 115.709 96.6914 112.002H96.7178C104.713 112 115.18 112.015 119.851 112.088Z" fill="#E98862"/>
<path d="M98.7402 115.456C98.7402 115.456 103.87 112.783 102.827 98.8596L113.399 96.9771C113.399 96.9771 112.125 109.442 117.437 113.439L98.7402 115.456Z" fill="#E98862"/>
<g opacity="0.15">
<path d="M115.29 110.819L106.568 104.051L113.458 104.029C113.641 106.386 114.262 108.69 115.29 110.819Z" fill="black"/>
</g>
<path d="M96.875 93.4246C97.5761 97.6502 99.8485 101.664 103.565 103.054C107.613 104.694 112 105.318 116.344 104.872C127.907 104.007 125.807 77.7149 120.353 72.5716C114.899 67.4282 98.7774 70.547 96.7581 79.0702C95.7174 83.4775 96.2063 89.4012 96.875 93.4246Z" fill="#E98862"/>
<path d="M113.436 90.2901C113.965 90.2901 114.393 89.8615 114.393 89.3327C114.393 88.8039 113.965 88.3752 113.436 88.3752C112.907 88.3752 112.479 88.8039 112.479 89.3327C112.479 89.8615 112.907 90.2901 113.436 90.2901Z" fill="#0F1011"/>
<path d="M120.993 89.7245C121.521 89.7245 121.95 89.2958 121.95 88.767C121.95 88.2382 121.521 87.8096 120.993 87.8096C120.464 87.8096 120.035 88.2382 120.035 88.767C120.035 89.2958 120.464 89.7245 120.993 89.7245Z" fill="#0F1011"/>
<path d="M122.67 86.7383H122.66L120.124 86.6881C120.065 86.687 120.007 86.6743 119.953 86.6506C119.899 86.6269 119.85 86.5928 119.809 86.5502C119.768 86.5076 119.736 86.4574 119.714 86.4024C119.693 86.3473 119.682 86.2886 119.684 86.2296C119.688 86.111 119.738 85.9987 119.823 85.9164C119.909 85.8342 120.023 85.7884 120.142 85.7888L122.678 85.8384C122.798 85.8395 122.912 85.888 122.995 85.9732C123.079 86.0584 123.125 86.1733 123.124 86.2927C123.123 86.412 123.074 86.526 122.989 86.6096C122.904 86.6932 122.789 86.7395 122.67 86.7383Z" fill="#0F1011"/>
<path d="M111.385 87.5827C111.275 87.5826 111.168 87.542 111.086 87.4685C111.004 87.3951 110.951 87.2939 110.939 87.1843C110.926 87.0747 110.954 86.9642 111.017 86.8739C111.081 86.7837 111.175 86.7198 111.283 86.6946L113.788 86.1105C113.846 86.0954 113.906 86.092 113.966 86.1006C114.025 86.1092 114.083 86.1297 114.134 86.1607C114.185 86.1918 114.23 86.2328 114.265 86.2815C114.301 86.3301 114.326 86.3853 114.34 86.4438C114.353 86.5023 114.355 86.563 114.345 86.6222C114.335 86.6814 114.313 86.738 114.28 86.7886C114.248 86.8392 114.206 86.8828 114.156 86.9168C114.107 86.9509 114.051 86.9746 113.992 86.9867L111.488 87.5708C111.454 87.5786 111.42 87.5826 111.385 87.5827Z" fill="#0F1011"/>
<path d="M113.824 96.8757C113.824 96.8757 117.356 97.2721 119.837 96.425C119.837 96.425 119.801 98.7529 117.003 98.9624C114.205 99.1719 113.824 96.8757 113.824 96.8757Z" fill="white"/>
<path d="M104.731 82.5426C105.602 101.808 102.942 103.778 102.942 103.778C102.942 103.778 93.361 97.9225 92.1862 86.3486C91.0854 75.4975 99.1203 69.1535 104.528 67.9847C125.073 63.5423 127.205 82.2347 127.205 82.2347C116.921 84.8004 102.509 82.9146 102.509 82.9146" fill="#0F1011"/>
<path d="M108.441 91.6401C108.521 92.7137 108.172 93.7752 107.469 94.5912C106.767 95.4072 105.77 95.9108 104.696 95.9912C103.623 96.0717 102.561 95.7223 101.745 95.0201C100.929 94.3179 100.425 93.3202 100.345 92.2467C100.248 91.1924 100.574 90.1428 101.25 89.3287C101.927 88.5146 102.9 88.0026 103.954 87.9055C104 87.9015 104.045 87.8982 104.09 87.8956C106.983 87.8216 108.273 89.4047 108.441 91.6401Z" fill="#E98862"/>
<path d="M88.4194 86.6299C93.5164 86.2483 97.3389 81.807 96.9572 76.7101C96.5756 71.6132 92.1344 67.7906 87.0374 68.1723C81.9405 68.5539 78.118 72.9952 78.4996 78.0921C78.8812 83.189 83.3225 87.0116 88.4194 86.6299Z" fill="#0F1011"/>
<g opacity="0.15">
<path d="M116.962 95.0369C116.882 95.037 116.806 95.0085 116.745 94.9567C116.685 94.9048 116.646 94.8331 116.634 94.7546C116.623 94.6761 116.64 94.596 116.683 94.5291C116.725 94.4621 116.79 94.4128 116.866 94.39L118.818 93.8059L117.478 90.7624C117.458 90.7223 117.446 90.6786 117.443 90.6338C117.441 90.589 117.447 90.5442 117.462 90.502C117.478 90.4598 117.501 90.4212 117.532 90.3884C117.563 90.3557 117.6 90.3296 117.641 90.3116C117.682 90.2936 117.726 90.2842 117.771 90.2839C117.816 90.2837 117.86 90.2925 117.902 90.31C117.943 90.3274 117.98 90.3531 118.011 90.3854C118.042 90.4178 118.067 90.4561 118.082 90.4981L119.574 93.8839C119.593 93.9267 119.603 93.973 119.602 94.0198C119.602 94.0666 119.591 94.1128 119.572 94.1553C119.552 94.1977 119.524 94.2356 119.488 94.2662C119.453 94.2969 119.412 94.3197 119.367 94.3332L117.054 95.025C117.024 95.0332 116.993 95.0372 116.962 95.0369Z" fill="black"/>
</g>
<path d="M237.695 330.883C238.051 330.882 238.404 330.81 238.733 330.672C239.062 330.534 239.36 330.333 239.611 330.08C239.862 329.826 240.06 329.526 240.195 329.196C240.33 328.866 240.399 328.513 240.397 328.156C240.397 328.09 240.397 328.024 240.388 327.958C240.348 327.442 240.161 326.949 239.85 326.536C239.539 326.123 239.116 325.807 238.631 325.626L222.48 320.217C222.167 320.113 221.835 320.078 221.507 320.115C221.18 320.151 220.864 320.258 220.581 320.428C218.361 321.969 215.705 322.756 213.004 322.675C210.9 322.525 208.88 321.787 207.176 320.545C207.026 320.422 206.844 320.345 206.652 320.321C206.46 320.298 206.265 320.329 206.09 320.413C205.915 320.496 205.767 320.627 205.663 320.791C205.56 320.954 205.505 321.144 205.506 321.338V329.235C205.506 329.705 205.692 330.155 206.024 330.487C206.356 330.818 206.806 331.005 207.275 331.005H207.283L237.695 330.883Z" fill="#C1D8ED"/>
<path d="M305.232 81.9849H221.318C217.644 81.9849 214.666 84.963 214.666 88.6368V152.499C214.666 156.173 217.644 159.151 221.318 159.151H305.232C308.906 159.151 311.884 156.173 311.884 152.499V88.6368C311.884 84.963 308.906 81.9849 305.232 81.9849Z" fill="#DEE8F5"/>
<path d="M274.392 146.793H252.156V171.964H274.392V146.793Z" fill="#DEE8F5"/>
<path d="M283.829 167.288H245.023C243.316 167.288 241.932 168.672 241.932 170.38V170.38C241.932 172.088 243.316 173.472 245.023 173.472H283.829C285.537 173.472 286.921 172.088 286.921 170.38V170.38C286.921 168.672 285.537 167.288 283.829 167.288Z" fill="#DEE8F5"/>
<path d="M48.2541 179.72H42.0488V331.007H48.2541V179.72Z" fill="#DEE8F5"/>
<path d="M347.561 179.72H341.355V331.007H347.561V179.72Z" fill="#C1D8ED"/>
<path d="M347.561 177.824H291.598V320.662H347.561V177.824Z" fill="#C1D8ED"/>
<path d="M286.631 310.318H280.426V331.007H286.631V310.318Z" fill="#C1D8ED"/>
<path d="M356.141 173.472H33.4688V182.005H356.141V173.472Z" fill="#DEE8F5"/>
<path d="M294.699 179.72H288.494V331.007H294.699V179.72Z" fill="#DEE8F5"/>
<path d="M233.77 179.72H227.564V331.007H233.77V179.72Z" fill="#DEE8F5"/>
<path d="M291.599 182.016H230.668V320.662H291.599V182.016Z" fill="#DEE8F5"/>
<path d="M346.46 41.2211C357.843 41.2211 367.071 31.9934 367.071 20.6105C367.071 9.22765 357.843 0 346.46 0C335.077 0 325.85 9.22765 325.85 20.6105C325.85 31.9934 335.077 41.2211 346.46 41.2211Z" fill="#C1D8ED"/>
<path d="M342.259 41.2211C353.642 41.2211 362.87 31.9934 362.87 20.6105C362.87 9.22765 353.642 0 342.259 0C330.876 0 321.648 9.22765 321.648 20.6105C321.648 31.9934 330.876 41.2211 342.259 41.2211Z" fill="#DEE8F5"/>
<path d="M342.259 38.1842C351.965 38.1842 359.833 30.3162 359.833 20.6105C359.833 10.9049 351.965 3.03687 342.259 3.03687C332.554 3.03687 324.686 10.9049 324.686 20.6105C324.686 30.3162 332.554 38.1842 342.259 38.1842Z" fill="#F3F5FD"/>
<path d="M342.259 22.9151C341.856 22.915 341.469 22.7549 341.184 22.47C340.898 22.1852 340.737 21.7987 340.736 21.3954V8.40676C340.736 8.00291 340.897 7.6156 341.182 7.33003C341.468 7.04446 341.855 6.88403 342.259 6.88403C342.663 6.88403 343.05 7.04446 343.336 7.33003C343.621 7.6156 343.782 8.00291 343.782 8.40676V18.7893L349.993 15.2979C350.345 15.1 350.761 15.0501 351.15 15.1592C351.539 15.2682 351.869 15.5273 352.066 15.8793C352.264 16.2314 352.314 16.6477 352.205 17.0365C352.096 17.4254 351.837 17.755 351.485 17.9528L343.003 22.7196C342.776 22.8473 342.52 22.9147 342.259 22.9151Z" fill="#DEE8F5"/>
<path d="M405.084 309.416C405.084 309.416 402.097 199.009 373.437 197.164C344.777 195.319 396.94 316.572 396.94 316.572" fill="#DEE8F5"/>
<path d="M406.362 301.87C406.362 301.87 442.086 222.431 418.301 206.338C394.515 190.246 395.715 303.924 395.715 303.924" fill="#8DDBE0"/>
<path d="M413.838 295.027H381.719V331.999H413.838V295.027Z" fill="#C1D8ED"/>
<path d="M162.512 172.86C165.87 172.86 169.916 171.884 170.11 171.187C170.391 170.192 165.52 169.016 165.52 169.016" fill="#E98862"/>
<path d="M166.801 173.697C166.801 169.178 171.208 165.516 176.646 165.516C182.084 165.516 186.492 169.178 186.492 173.697" fill="#DEE8F5"/>
<path d="M181.085 166.483C180.975 166.614 180.841 166.722 180.688 166.799C180.536 166.876 180.37 166.922 180.2 166.933C175.085 167.237 167.619 168.538 165.815 171.637C165.088 172.88 161.397 173.014 159.203 173.008L159.188 163.427C163.615 162.224 174.907 159.852 180.906 164.742C181.159 164.95 181.32 165.25 181.354 165.576C181.387 165.902 181.29 166.228 181.085 166.483Z" fill="#E98862"/>
</g>
<defs>
<clipPath id="clip0_5311_36938">
<rect width="469.141" height="332" fill="white"/>
</clipPath>
</defs>
</svg>
