<svg width="11" height="12" viewBox="0 0 11 12" fill="none" xmlns="http://www.w3.org/2000/svg">
<g clip-path="url(#clip0_2208_35842)">
<path d="M1.60264 2.37595C1.60264 2.34628 1.61443 2.31783 1.63541 2.29685C1.65639 2.27587 1.68484 2.26408 1.71451 2.26408H7.75571C7.78539 2.26408 7.81384 2.27587 7.83482 2.29685C7.8558 2.31783 7.86759 2.34628 7.86759 2.37595V6.85092C7.86759 6.93993 7.90295 7.02529 7.96589 7.08824C8.02883 7.15118 8.1142 7.18654 8.20321 7.18654C8.29222 7.18654 8.37759 7.15118 8.44053 7.08824C8.50347 7.02529 8.53883 6.93993 8.53883 6.85092V2.37595C8.53883 2.16826 8.45633 1.96907 8.30946 1.8222C8.1626 1.67534 7.96341 1.59283 7.75571 1.59283H1.71451C1.50682 1.59283 1.30763 1.67534 1.16077 1.8222C1.0139 1.96907 0.931396 2.16826 0.931396 2.37595V9.75964C0.931396 10.1919 1.28223 10.5428 1.71451 10.5428H4.84699C4.936 10.5428 5.02137 10.5074 5.08431 10.4445C5.14725 10.3815 5.18261 10.2962 5.18261 10.2071C5.18261 10.1181 5.14725 10.0328 5.08431 9.96982C5.02137 9.90688 4.936 9.87152 4.84699 9.87152H1.71451C1.68484 9.87152 1.65639 9.85973 1.63541 9.83875C1.61443 9.81777 1.60264 9.78931 1.60264 9.75964V2.37595Z" fill="black" fill-opacity="0.65"/>
<path d="M2.8333 3.83026C2.74429 3.83026 2.65892 3.86562 2.59598 3.92856C2.53304 3.9915 2.49768 4.07687 2.49768 4.16588C2.49768 4.2549 2.53304 4.34026 2.59598 4.4032C2.65892 4.46615 2.74429 4.50151 2.8333 4.50151H6.63702C6.72603 4.50151 6.8114 4.46615 6.87434 4.4032C6.93728 4.34026 6.97264 4.2549 6.97264 4.16588C6.97264 4.07687 6.93728 3.9915 6.87434 3.92856C6.8114 3.86562 6.72603 3.83026 6.63702 3.83026H2.8333ZM2.49768 5.95587C2.49768 5.86686 2.53304 5.78149 2.59598 5.71855C2.65892 5.65561 2.74429 5.62025 2.8333 5.62025H4.84704C4.93605 5.62025 5.02142 5.65561 5.08436 5.71855C5.1473 5.78149 5.18266 5.86686 5.18266 5.95587C5.18266 6.04488 5.1473 6.13025 5.08436 6.19319C5.02142 6.25613 4.93605 6.29149 4.84704 6.29149H2.8333C2.74429 6.29149 2.65892 6.25613 2.59598 6.19319C2.53304 6.13025 2.49768 6.04488 2.49768 5.95587ZM9.78292 7.98303C9.8159 7.9523 9.84234 7.91525 9.86069 7.87408C9.87903 7.83291 9.88889 7.78847 9.88969 7.7434C9.89048 7.69834 9.88219 7.65358 9.86531 7.61178C9.84843 7.56999 9.82331 7.53203 9.79144 7.50016C9.75957 7.46829 9.72161 7.44317 9.67982 7.42629C9.63802 7.40941 9.59326 7.40112 9.5482 7.40191C9.50313 7.40271 9.45869 7.41257 9.41752 7.43091C9.37635 7.44926 9.3393 7.47571 9.30857 7.50868L7.08452 9.73274L6.20295 8.85117C6.17222 8.81819 6.13517 8.79175 6.094 8.7734C6.05283 8.75506 6.00839 8.7452 5.96333 8.7444C5.91826 8.74361 5.8735 8.75189 5.83171 8.76877C5.78992 8.78565 5.75195 8.81078 5.72008 8.84265C5.68821 8.87452 5.66309 8.91248 5.64621 8.95427C5.62933 8.99606 5.62104 9.04083 5.62183 9.08589C5.62263 9.13095 5.63249 9.1754 5.65084 9.21657C5.66918 9.25774 5.69563 9.29479 5.7286 9.32552L6.84734 10.4443C6.91027 10.5071 6.99558 10.5424 7.08452 10.5424C7.17346 10.5424 7.25876 10.5071 7.32169 10.4443L9.78292 7.98303Z" fill="black" fill-opacity="0.65"/>
</g>
<defs>
<clipPath id="clip0_2208_35842">
<rect width="10.7399" height="10.7399" fill="white" transform="translate(0.036377 0.697815)"/>
</clipPath>
</defs>
</svg>
