<svg width="14" height="14" viewBox="0 0 14 14" fill="none" xmlns="http://www.w3.org/2000/svg">
<mask id="path-1-inside-1_1540_6574" fill="white">
<path d="M13.522 6.28186L7.97342 0.874107C7.79212 0.697227 7.56139 0.600029 7.32281 0.600029C7.08423 0.600029 6.8535 0.697227 6.6722 0.874107L1.09029 6.28186C1.00816 6.36025 0.94045 6.45642 0.891083 6.56482C0.841716 6.67322 0.811667 6.7917 0.80267 6.91342C0.793674 7.03514 0.805909 7.15769 0.838669 7.27399C0.871428 7.39028 0.924064 7.49802 0.993534 7.59099C1.07102 7.69836 1.16905 7.78404 1.28011 7.84144C1.39116 7.89883 1.51227 7.92642 1.63414 7.92208H2.33146V12.9797C2.33146 13.0612 2.34552 13.1418 2.37285 13.2171C2.40019 13.2924 2.44025 13.3607 2.49075 13.4183C2.54125 13.4759 2.6012 13.5216 2.66718 13.5528C2.73316 13.584 2.80388 13.6 2.8753 13.6H5.3276C5.39902 13.6 5.46974 13.584 5.53572 13.5528C5.60171 13.5216 5.66166 13.4759 5.71216 13.4183C5.76266 13.3607 5.80272 13.2924 5.83005 13.2171C5.85738 13.1418 5.87145 13.0612 5.87145 12.9797V9.86674C5.87145 9.76581 5.9066 9.66901 5.96917 9.59764C6.03174 9.52627 6.11661 9.48618 6.20509 9.48618H8.42051C8.509 9.48618 8.59386 9.52627 8.65643 9.59764C8.719 9.66901 8.75415 9.76581 8.75415 9.86674V12.9797C8.75415 13.0612 8.76822 13.1418 8.79555 13.2171C8.82288 13.2924 8.86294 13.3607 8.91344 13.4183C8.96394 13.4759 9.0239 13.5216 9.08988 13.5528C9.15586 13.584 9.22658 13.6 9.298 13.6H11.7503C11.8217 13.6 11.8924 13.584 11.9584 13.5528C12.0244 13.5216 12.0844 13.4759 12.1349 13.4183C12.1854 13.3607 12.2254 13.2924 12.2527 13.2171C12.2801 13.1418 12.2941 13.0612 12.2941 12.9797V7.92208H12.9781C13.1459 7.92386 13.31 7.86649 13.4481 7.75781C13.5862 7.64913 13.6914 7.49446 13.7495 7.31494C13.8076 7.13542 13.8156 6.93982 13.7725 6.7549C13.7293 6.56998 13.6372 6.40477 13.5086 6.28186H13.522Z"/>
</mask>
<path d="M13.522 6.28186V7.68186C14.0915 7.68186 14.6042 7.33686 14.8188 6.8093C15.0334 6.28174 14.907 5.67678 14.4991 5.27928L13.522 6.28186ZM7.97342 0.874107L6.99577 1.8762L6.99627 1.87669L7.97342 0.874107ZM6.6722 0.874107L7.64635 1.87962L7.64985 1.8762L6.6722 0.874107ZM1.09029 6.28186L2.05688 7.29469L2.06443 7.28737L1.09029 6.28186ZM0.993534 7.59099L2.12882 6.77176C2.12426 6.76545 2.11965 6.75917 2.11499 6.75294L0.993534 7.59099ZM1.63414 7.92208V6.52208C1.6175 6.52208 1.60087 6.52237 1.58425 6.52296L1.63414 7.92208ZM2.33146 7.92208H3.73146C3.73146 7.14888 3.10466 6.52208 2.33146 6.52208V7.92208ZM2.33146 12.9797H3.73146H2.33146ZM2.8753 13.6V15V13.6ZM5.3276 13.6V15V13.6ZM8.75415 12.9797H10.1542H8.75415ZM9.298 13.6V15V13.6ZM11.7503 13.6V15V13.6ZM12.2941 7.92208V6.52208C11.5209 6.52208 10.8941 7.14888 10.8941 7.92208H12.2941ZM12.9781 7.92208L12.993 6.52215C12.988 6.5221 12.9831 6.52208 12.9781 6.52208V7.92208ZM13.5086 6.28186V4.88186C12.9366 4.88186 12.4222 5.22983 12.2092 5.76072C11.9963 6.29161 12.1278 6.89864 12.5412 7.29388L13.5086 6.28186ZM14.4991 5.27928L8.95057 -0.12848L6.99627 1.87669L12.5448 7.28445L14.4991 5.27928ZM8.95107 -0.12799C8.52611 -0.542587 7.95087 -0.799971 7.32281 -0.799971V2.00003C7.1719 2.00003 7.05813 1.93704 6.99577 1.8762L8.95107 -0.12799ZM7.32281 -0.799971C6.69475 -0.799971 6.11951 -0.542586 5.69455 -0.12799L7.64985 1.8762C7.58749 1.93704 7.47372 2.00003 7.32281 2.00003V-0.799971ZM5.69806 -0.131404L0.116152 5.27635L2.06443 7.28737L7.64634 1.87962L5.69806 -0.131404ZM0.123727 5.26907C-0.0938462 5.47671 -0.263341 5.7218 -0.383012 5.98458L2.16518 7.14506C2.14424 7.19104 2.11016 7.24379 2.05686 7.29466L0.123727 5.26907ZM-0.383012 5.98458C-0.502645 6.24727 -0.572637 6.52767 -0.593521 6.81023L2.19886 7.01661C2.19597 7.05573 2.18608 7.09917 2.16518 7.14506L-0.383012 5.98458ZM-0.593521 6.81023C-0.614406 7.09279 -0.586293 7.37879 -0.508888 7.65358L2.18623 6.89439C2.19811 6.93659 2.20175 6.97749 2.19886 7.01661L-0.593521 6.81023ZM-0.508888 7.65358C-0.43148 7.92838 -0.304463 8.1928 -0.127925 8.42904L2.11499 6.75294C2.15259 6.80325 2.17434 6.85219 2.18623 6.89439L-0.508888 7.65358ZM-0.141749 8.41021C0.0564886 8.68493 0.319521 8.9209 0.637309 9.08515L1.9229 6.59773C2.01858 6.64718 2.08554 6.71179 2.12882 6.77176L-0.141749 8.41021ZM0.637309 9.08515C0.956459 9.2501 1.31551 9.33432 1.68402 9.32119L1.58425 6.52296C1.70903 6.51852 1.82586 6.54757 1.9229 6.59773L0.637309 9.08515ZM1.63414 9.32208H2.33146V6.52208H1.63414V9.32208ZM0.931457 7.92208V12.9797H3.73146V7.92208H0.931457ZM0.931457 12.9797C0.931457 13.2213 0.973003 13.4638 1.05694 13.695L3.68877 12.7392C3.71805 12.8198 3.73146 12.9011 3.73146 12.9797H0.931457ZM1.05694 13.695C1.14089 13.9261 1.26778 14.1471 1.43804 14.3413L3.54345 12.4954C3.61271 12.5744 3.65948 12.6586 3.68877 12.7392L1.05694 13.695ZM1.43804 14.3413C1.60859 14.5358 1.82112 14.7015 2.06913 14.8186L3.26523 12.287C3.38128 12.3418 3.47391 12.4161 3.54345 12.4954L1.43804 14.3413ZM2.06913 14.8186C2.3179 14.9362 2.59247 15 2.8753 15V12.2C3.0153 12.2 3.14843 12.2318 3.26523 12.287L2.06913 14.8186ZM2.8753 15H5.3276V12.2H2.8753V15ZM5.3276 15C5.61044 15 5.88501 14.9362 6.13377 14.8186L4.93767 12.287C5.05448 12.2318 5.1876 12.2 5.3276 12.2V15ZM6.13377 14.8186C6.38178 14.7015 6.59432 14.5358 6.76487 14.3413L4.65945 12.4954C4.729 12.4161 4.82163 12.3418 4.93767 12.287L6.13377 14.8186ZM6.76487 14.3413C6.93512 14.1471 7.06202 13.9261 7.14597 13.695L4.51413 12.7392C4.54342 12.6586 4.5902 12.5744 4.65945 12.4954L6.76487 14.3413ZM7.14597 13.695C7.2299 13.4638 7.27145 13.2213 7.27145 12.9797H4.47145C4.47145 12.9011 4.48486 12.8198 4.51413 12.7392L7.14597 13.695ZM7.27145 12.9797V9.86674H4.47145V12.9797H7.27145ZM7.27145 9.86674C7.27145 10.082 7.19814 10.3195 7.02188 10.5206L4.91646 8.6747C4.61506 9.01849 4.47145 9.44964 4.47145 9.86674H7.27145ZM7.02188 10.5206C6.84044 10.7275 6.5518 10.8862 6.20509 10.8862V8.08618C5.68141 8.08618 5.22304 8.32502 4.91646 8.6747L7.02188 10.5206ZM6.20509 10.8862H8.42051V8.08618H6.20509V10.8862ZM8.42051 10.8862C8.07381 10.8862 7.78516 10.7275 7.60372 10.5206L9.70914 8.6747C9.40256 8.32502 8.94419 8.08618 8.42051 8.08618V10.8862ZM7.60372 10.5206C7.42746 10.3195 7.35415 10.082 7.35415 9.86674H10.1542C10.1542 9.44964 10.0105 9.01849 9.70914 8.6747L7.60372 10.5206ZM7.35415 9.86674V12.9797H10.1542V9.86674H7.35415ZM7.35415 12.9797C7.35415 13.2213 7.3957 13.4638 7.47964 13.695L10.1115 12.7392C10.1407 12.8198 10.1542 12.9011 10.1542 12.9797H7.35415ZM7.47964 13.695C7.56358 13.9261 7.69047 14.1471 7.86074 14.3413L9.96615 12.4954C10.0354 12.5744 10.0822 12.6586 10.1115 12.7392L7.47964 13.695ZM7.86074 14.3413C8.03128 14.5358 8.24382 14.7015 8.49183 14.8186L9.68793 12.287C9.80397 12.3418 9.8966 12.4161 9.96615 12.4954L7.86074 14.3413ZM8.49183 14.8186C8.74059 14.9362 9.01516 15 9.298 15V12.2C9.438 12.2 9.57113 12.2318 9.68793 12.287L8.49183 14.8186ZM9.298 15H11.7503V12.2H9.298V15ZM11.7503 15C12.0331 15 12.3077 14.9362 12.5565 14.8186L11.3604 12.287C11.4772 12.2318 11.6103 12.2 11.7503 12.2V15ZM12.5565 14.8186C12.8045 14.7015 13.017 14.5358 13.1876 14.3413L11.0822 12.4954C11.1517 12.4161 11.2443 12.3418 11.3604 12.287L12.5565 14.8186ZM13.1876 14.3413C13.3578 14.1471 13.4847 13.9261 13.5687 13.695L10.9368 12.7392C10.9661 12.6586 11.0129 12.5744 11.0822 12.4954L13.1876 14.3413ZM13.5687 13.695C13.6526 13.4638 13.6941 13.2213 13.6941 12.9797H10.8941C10.8941 12.9011 10.9076 12.8198 10.9368 12.7392L13.5687 13.695ZM13.6941 12.9797V7.92208H10.8941V12.9797H13.6941ZM12.2941 9.32208H12.9781V6.52208H12.2941V9.32208ZM12.9632 9.322C13.4661 9.32734 13.9379 9.15392 14.314 8.85792L12.5822 6.6577C12.6821 6.57906 12.8256 6.52038 12.993 6.52215L12.9632 9.322ZM14.314 8.85792C14.6867 8.56452 14.9446 8.16924 15.0815 7.74577L12.4174 6.8841C12.4383 6.81967 12.4856 6.73374 12.5822 6.6577L14.314 8.85792ZM15.0815 7.74577C15.2184 7.32253 15.2364 6.86804 15.1359 6.437L12.409 7.0728C12.3948 7.0116 12.3967 6.9483 12.4174 6.8841L15.0815 7.74577ZM15.1359 6.437C15.0354 6.0059 14.8147 5.59361 14.476 5.26985L12.5412 7.29388C12.4597 7.21593 12.4233 7.13407 12.409 7.0728L15.1359 6.437ZM13.5086 7.68186H13.522V4.88186H13.5086V7.68186Z" fill="#0FA958" mask="url(#path-1-inside-1_1540_6574)"/>
</svg>
