<svg width="5" height="5" viewBox="0 0 17 17" fill="none" xmlns="http://www.w3.org/2000/svg">
<path d="M14.4594 7.55007H11.7511C11.6074 7.55007 11.4697 7.61856 11.3681 7.74045C11.2665 7.86235 11.2094 8.02768 11.2094 8.20007V14.0501C11.2094 14.2225 11.2665 14.3878 11.3681 14.5097C11.4697 14.6316 11.6074 14.7001 11.7511 14.7001H14.4594C14.6031 14.7001 14.7409 14.6316 14.8424 14.5097C14.944 14.3878 15.0011 14.2225 15.0011 14.0501V8.20007C15.0011 8.02768 14.944 7.86235 14.8424 7.74045C14.7409 7.61856 14.6031 7.55007 14.4594 7.55007ZM14.4594 13.4001H11.7511V8.85007H14.4594V13.4001ZM12.8344 1.70007H3.08443C2.48318 1.70007 2.0011 2.27857 2.0011 3.00007V10.8001C2.0011 11.1449 2.11524 11.4755 2.3184 11.7193C2.52156 11.9631 2.79711 12.1001 3.08443 12.1001H6.8761V13.4001H5.79277V14.7001H10.1261V13.4001H9.04277V12.1001H10.1261V10.8001H3.08443V3.00007H12.8344V6.25007H13.9178V3.00007C13.9178 2.65529 13.8036 2.32463 13.6005 2.08083C13.3973 1.83704 13.1217 1.70007 12.8344 1.70007ZM8.48485 6.25007L7.95943 4.30007L7.43402 6.25007H5.79277L7.13068 7.39407L6.62152 9.28557L7.95943 8.11557L9.29735 9.28557L8.78818 7.39407L10.1261 6.25007H8.48485Z" fill="black" fill-opacity="0.65"/>
</svg>
