<svg width="752" height="980" viewBox="0 0 752 980" fill="none" xmlns="http://www.w3.org/2000/svg">
  <g clip-path="url(#clip0_15660_286788)">
    <mask id="path-1-inside-1_15660_286788" fill="white">
      <path d="M0 0H752V980H0V0Z"/>
    </mask>
    <path d="M0 0H752V980H0V0Z" fill="white"/>
    <g clip-path="url(#clip1_15660_286788)">
      <line x1="383.999" y1="972.81" x2="-209.471" y2="972.81" stroke="#B2B2B2" stroke-width="0.2"/>
      <line x1="383.899" y1="990" x2="383.899" y2="-67.9194" stroke="#B2B2B2" stroke-width="0.2"/>
      <line x1="371.99" y1="990" x2="371.99" y2="-67.9194" stroke="#B2B2B2" stroke-width="0.2"/>
      <line x1="288.626" y1="990" x2="288.626" y2="-67.9194" stroke="#B2B2B2" stroke-width="0.2"/>
      <line x1="275.724" y1="990" x2="275.724" y2="-67.9194" stroke="#B2B2B2" stroke-width="0.2"/>
      <line x1="97.0519" y1="988.919" x2="97.0519" y2="-69" stroke="#B2B2B2" stroke-width="0.2"/>
      <line x1="85.1427" y1="988.919" x2="85.1427" y2="-69" stroke="#B2B2B2" stroke-width="0.2"/>
      <line x1="193.317" y1="990" x2="193.317" y2="-67.9194" stroke="#B2B2B2" stroke-width="0.2"/>
      <line x1="180.415" y1="990" x2="180.415" y2="-67.9194" stroke="#B2B2B2" stroke-width="0.2"/>
      <line x1="3.76401" y1="990" x2="3.76401" y2="-67.9194" stroke="#B2B2B2" stroke-width="0.2"/>
      <line x1="383.999" y1="962.797" x2="-200.539" y2="962.797" stroke="#B2B2B2" stroke-width="0.2"/>
      <line x1="384" y1="903.869" x2="-200.54" y2="903.869" stroke="#B2B2B2" stroke-width="0.2"/>
      <line x1="384" y1="913.652" x2="-200.506" y2="913.652" stroke="#B2B2B2" stroke-width="0.2"/>
      <line x1="383.999" y1="824.766" x2="-195.577" y2="824.766" stroke="#B2B2B2" stroke-width="0.2"/>
      <line x1="383.999" y1="834.492" x2="-195.577" y2="834.492" stroke="#B2B2B2" stroke-width="0.2"/>
      <line x1="384" y1="756.959" x2="-200.54" y2="756.959" stroke="#B2B2B2" stroke-width="0.2"/>
      <line x1="384" y1="766.742" x2="-200.506" y2="766.742" stroke="#B2B2B2" stroke-width="0.2"/>
      <line x1="383.999" y1="688.197" x2="-200.539" y2="688.197" stroke="#B2B2B2" stroke-width="0.2"/>
      <line x1="384" y1="698.52" x2="-200.506" y2="698.52" stroke="#B2B2B2" stroke-width="0.2"/>
      <line x1="384" y1="618.802" x2="-200.54" y2="618.802" stroke="#B2B2B2" stroke-width="0.2"/>
      <line x1="383.999" y1="628.585" x2="-200.506" y2="628.585" stroke="#B2B2B2" stroke-width="0.2"/>
      <line x1="384" y1="550.58" x2="-200.54" y2="550.58" stroke="#B2B2B2" stroke-width="0.2"/>
      <line x1="384" y1="560.363" x2="-200.506" y2="560.363" stroke="#B2B2B2" stroke-width="0.2"/>
      <line y1="-0.1" x2="584.016" y2="-0.1" transform="matrix(-1 0 0.00132705 -0.999999 384 482.547)" stroke="#B2B2B2" stroke-width="0.2"/>
      <line x1="383.999" y1="492.373" x2="-199.024" y2="492.373" stroke="#B2B2B2" stroke-width="0.2"/>
      <line x1="383.999" y1="413.596" x2="-200.539" y2="413.596" stroke="#B2B2B2" stroke-width="0.2"/>
      <line x1="383.999" y1="423.379" x2="-200.505" y2="423.379" stroke="#B2B2B2" stroke-width="0.2"/>
      <line x1="384" y1="344.201" x2="-200.54" y2="344.201" stroke="#B2B2B2" stroke-width="0.2"/>
      <line x1="384" y1="353.984" x2="-200.506" y2="353.984" stroke="#B2B2B2" stroke-width="0.2"/>
      <line x1="383.999" y1="275.439" x2="-200.539" y2="275.439" stroke="#B2B2B2" stroke-width="0.2"/>
      <line x1="384" y1="285.763" x2="-200.506" y2="285.763" stroke="#B2B2B2" stroke-width="0.2"/>
      <line x1="383.999" y1="207.217" x2="-200.539" y2="207.217" stroke="#B2B2B2" stroke-width="0.2"/>
      <line x1="384" y1="217.541" x2="-200.506" y2="217.541" stroke="#B2B2B2" stroke-width="0.2"/>
      <line x1="384" y1="138.996" x2="-200.54" y2="138.996" stroke="#B2B2B2" stroke-width="0.2"/>
      <line x1="383.999" y1="148.779" x2="-200.505" y2="148.779" stroke="#B2B2B2" stroke-width="0.2"/>
      <line x1="384" y1="70.7738" x2="-200.54" y2="70.7738" stroke="#B2B2B2" stroke-width="0.2"/>
      <line x1="384" y1="80.5575" x2="-200.506" y2="80.5575" stroke="#B2B2B2" stroke-width="0.2"/>
      <line x1="383.999" y1="0.838281" x2="-200.54" y2="0.838281" stroke="#B2B2B2" stroke-width="0.2"/>
      <line x1="383.999" y1="10.945" x2="-200.506" y2="10.945" stroke="#B2B2B2" stroke-width="0.2"/>
    </g>
    <g clip-path="url(#clip2_15660_286788)">
      <line x1="751.999" y1="972.81" x2="158.529" y2="972.81" stroke="#B2B2B2" stroke-width="0.2"/>
      <line x1="751.899" y1="990" x2="751.899" y2="-67.9194" stroke="#B2B2B2" stroke-width="0.2"/>
      <line x1="739.99" y1="990" x2="739.99" y2="-67.9194" stroke="#B2B2B2" stroke-width="0.2"/>
      <line x1="656.626" y1="990" x2="656.626" y2="-67.9194" stroke="#B2B2B2" stroke-width="0.2"/>
      <line x1="643.724" y1="990" x2="643.724" y2="-67.9194" stroke="#B2B2B2" stroke-width="0.2"/>
      <line x1="465.052" y1="988.919" x2="465.052" y2="-69" stroke="#B2B2B2" stroke-width="0.2"/>
      <line x1="453.143" y1="988.919" x2="453.143" y2="-69" stroke="#B2B2B2" stroke-width="0.2"/>
      <line x1="561.317" y1="990" x2="561.317" y2="-67.9194" stroke="#B2B2B2" stroke-width="0.2"/>
      <line x1="548.415" y1="990" x2="548.415" y2="-67.9194" stroke="#B2B2B2" stroke-width="0.2"/>
      <line x1="371.764" y1="990" x2="371.764" y2="-67.9194" stroke="#B2B2B2" stroke-width="0.2"/>
      <line x1="751.999" y1="962.797" x2="167.461" y2="962.797" stroke="#B2B2B2" stroke-width="0.2"/>
      <line x1="752" y1="903.869" x2="167.46" y2="903.869" stroke="#B2B2B2" stroke-width="0.2"/>
      <line x1="752" y1="913.652" x2="167.494" y2="913.652" stroke="#B2B2B2" stroke-width="0.2"/>
      <line x1="751.999" y1="824.766" x2="172.423" y2="824.766" stroke="#B2B2B2" stroke-width="0.2"/>
      <line x1="751.999" y1="834.492" x2="172.423" y2="834.492" stroke="#B2B2B2" stroke-width="0.2"/>
      <line x1="752" y1="756.959" x2="167.46" y2="756.959" stroke="#B2B2B2" stroke-width="0.2"/>
      <line x1="752" y1="766.742" x2="167.494" y2="766.742" stroke="#B2B2B2" stroke-width="0.2"/>
      <line x1="751.999" y1="688.197" x2="167.461" y2="688.197" stroke="#B2B2B2" stroke-width="0.2"/>
      <line x1="752" y1="698.52" x2="167.494" y2="698.52" stroke="#B2B2B2" stroke-width="0.2"/>
      <line x1="752" y1="618.802" x2="167.46" y2="618.802" stroke="#B2B2B2" stroke-width="0.2"/>
      <line x1="751.999" y1="628.585" x2="167.494" y2="628.585" stroke="#B2B2B2" stroke-width="0.2"/>
      <line x1="752" y1="550.58" x2="167.46" y2="550.58" stroke="#B2B2B2" stroke-width="0.2"/>
      <line x1="752" y1="560.363" x2="167.494" y2="560.363" stroke="#B2B2B2" stroke-width="0.2"/>
      <line y1="-0.1" x2="584.016" y2="-0.1" transform="matrix(-1 0 0.00132705 -0.999999 752 482.547)" stroke="#B2B2B2" stroke-width="0.2"/>
      <line x1="751.999" y1="492.373" x2="168.976" y2="492.373" stroke="#B2B2B2" stroke-width="0.2"/>
      <line x1="751.999" y1="413.596" x2="167.461" y2="413.596" stroke="#B2B2B2" stroke-width="0.2"/>
      <line x1="751.999" y1="423.379" x2="167.495" y2="423.379" stroke="#B2B2B2" stroke-width="0.2"/>
      <line x1="752" y1="344.201" x2="167.46" y2="344.201" stroke="#B2B2B2" stroke-width="0.2"/>
      <line x1="752" y1="353.984" x2="167.494" y2="353.984" stroke="#B2B2B2" stroke-width="0.2"/>
      <line x1="751.999" y1="275.439" x2="167.461" y2="275.439" stroke="#B2B2B2" stroke-width="0.2"/>
      <line x1="752" y1="285.763" x2="167.494" y2="285.763" stroke="#B2B2B2" stroke-width="0.2"/>
      <line x1="751.999" y1="207.217" x2="167.461" y2="207.217" stroke="#B2B2B2" stroke-width="0.2"/>
      <line x1="752" y1="217.541" x2="167.494" y2="217.541" stroke="#B2B2B2" stroke-width="0.2"/>
      <line x1="752" y1="138.996" x2="167.46" y2="138.996" stroke="#B2B2B2" stroke-width="0.2"/>
      <line x1="751.999" y1="148.779" x2="167.495" y2="148.779" stroke="#B2B2B2" stroke-width="0.2"/>
      <line x1="752" y1="70.7738" x2="167.46" y2="70.7738" stroke="#B2B2B2" stroke-width="0.2"/>
      <line x1="752" y1="80.5575" x2="167.494" y2="80.5575" stroke="#B2B2B2" stroke-width="0.2"/>
      <line x1="751.999" y1="0.838281" x2="167.46" y2="0.838281" stroke="#B2B2B2" stroke-width="0.2"/>
      <line x1="751.999" y1="10.945" x2="167.494" y2="10.945" stroke="#B2B2B2" stroke-width="0.2"/>
    </g>
  </g>
  <path d="M0.5 980V0H-0.5V980H0.5Z" fill="#B2B2B2" mask="url(#path-1-inside-1_15660_286788)"/>
  <defs>
    <clipPath id="clip0_15660_286788">
      <path d="M0 0H752V980H0V0Z" fill="white"/>
    </clipPath>
    <clipPath id="clip1_15660_286788">
      <rect width="393" height="1059" fill="white" transform="matrix(-1 0 0 -1 384 990)"/>
    </clipPath>
    <clipPath id="clip2_15660_286788">
      <rect width="393" height="1059" fill="white" transform="matrix(-1 0 0 -1 752 990)"/>
    </clipPath>
  </defs>
</svg>
