<svg width="390" height="980" viewBox="0 0 390 980" fill="none" xmlns="http://www.w3.org/2000/svg">
  <g clip-path="url(#clip0_15974_294169)">
    <line x1="380.99" y1="1059" x2="380.99" y2="1.08057" stroke="#B2B2B2" stroke-width="0.2"/>
    <line x1="297.626" y1="1059" x2="297.626" y2="1.08057" stroke="#B2B2B2" stroke-width="0.2"/>
    <line x1="284.724" y1="1059" x2="284.724" y2="1.08057" stroke="#B2B2B2" stroke-width="0.2"/>
    <line x1="106.052" y1="1057.92" x2="106.052" stroke="#B2B2B2" stroke-width="0.2"/>
    <line x1="94.1427" y1="1057.92" x2="94.1427" stroke="#B2B2B2" stroke-width="0.2"/>
    <line x1="202.317" y1="1059" x2="202.317" y2="1.08057" stroke="#B2B2B2" stroke-width="0.2"/>
    <line x1="189.415" y1="1059" x2="189.415" y2="1.08057" stroke="#B2B2B2" stroke-width="0.2"/>
    <line x1="12.764" y1="1059" x2="12.764" y2="1.08057" stroke="#B2B2B2" stroke-width="0.2"/>
    <line x1="393" y1="972.869" x2="-191.54" y2="972.869" stroke="#B2B2B2" stroke-width="0.2"/>
    <line x1="392.999" y1="893.766" x2="-186.577" y2="893.766" stroke="#B2B2B2" stroke-width="0.2"/>
    <line x1="392.999" y1="903.492" x2="-186.577" y2="903.492" stroke="#B2B2B2" stroke-width="0.2"/>
    <line x1="393" y1="825.959" x2="-191.54" y2="825.958" stroke="#B2B2B2" stroke-width="0.2"/>
    <line x1="393" y1="835.742" x2="-191.506" y2="835.742" stroke="#B2B2B2" stroke-width="0.2"/>
    <line x1="392.999" y1="757.197" x2="-191.539" y2="757.197" stroke="#B2B2B2" stroke-width="0.2"/>
    <line x1="393" y1="767.52" x2="-191.506" y2="767.52" stroke="#B2B2B2" stroke-width="0.2"/>
    <line x1="393" y1="687.802" x2="-191.54" y2="687.802" stroke="#B2B2B2" stroke-width="0.2"/>
    <line x1="392.999" y1="697.585" x2="-191.506" y2="697.585" stroke="#B2B2B2" stroke-width="0.2"/>
    <line x1="393" y1="619.58" x2="-191.54" y2="619.58" stroke="#B2B2B2" stroke-width="0.2"/>
    <line x1="393" y1="629.363" x2="-191.506" y2="629.363" stroke="#B2B2B2" stroke-width="0.2"/>
    <line y1="-0.1" x2="584.016" y2="-0.1" transform="matrix(-1 0 0.00132705 -0.999999 393 551.547)" stroke="#B2B2B2" stroke-width="0.2"/>
    <line x1="392.999" y1="561.373" x2="-190.024" y2="561.373" stroke="#B2B2B2" stroke-width="0.2"/>
    <line x1="392.999" y1="482.596" x2="-191.539" y2="482.596" stroke="#B2B2B2" stroke-width="0.2"/>
    <line x1="392.999" y1="492.379" x2="-191.505" y2="492.379" stroke="#B2B2B2" stroke-width="0.2"/>
    <line x1="393" y1="413.201" x2="-191.54" y2="413.201" stroke="#B2B2B2" stroke-width="0.2"/>
    <line x1="393" y1="422.984" x2="-191.506" y2="422.984" stroke="#B2B2B2" stroke-width="0.2"/>
    <line x1="392.999" y1="344.439" x2="-191.539" y2="344.439" stroke="#B2B2B2" stroke-width="0.2"/>
    <line x1="393" y1="354.763" x2="-191.506" y2="354.763" stroke="#B2B2B2" stroke-width="0.2"/>
    <line x1="392.999" y1="276.217" x2="-191.539" y2="276.217" stroke="#B2B2B2" stroke-width="0.2"/>
    <line x1="393" y1="286.541" x2="-191.506" y2="286.541" stroke="#B2B2B2" stroke-width="0.2"/>
    <line x1="393" y1="207.996" x2="-191.54" y2="207.996" stroke="#B2B2B2" stroke-width="0.2"/>
    <line x1="392.999" y1="217.779" x2="-191.505" y2="217.779" stroke="#B2B2B2" stroke-width="0.2"/>
    <line x1="393" y1="139.774" x2="-191.54" y2="139.774" stroke="#B2B2B2" stroke-width="0.2"/>
    <line x1="393" y1="149.558" x2="-191.506" y2="149.558" stroke="#B2B2B2" stroke-width="0.2"/>
    <line x1="392.999" y1="69.8383" x2="-191.54" y2="69.8383" stroke="#B2B2B2" stroke-width="0.2"/>
    <line x1="392.999" y1="79.945" x2="-191.506" y2="79.945" stroke="#B2B2B2" stroke-width="0.2"/>
    <line x1="392.999" y1="1.6166" x2="-191.54" y2="1.6166" stroke="#B2B2B2" stroke-width="0.2"/>
    <line x1="392.999" y1="11.4003" x2="-191.505" y2="11.4003" stroke="#B2B2B2" stroke-width="0.2"/>
  </g>
  <defs>
    <clipPath id="clip0_15974_294169">
      <rect width="393" height="1059" fill="white" transform="matrix(-1 0 0 -1 393 1059)"/>
    </clipPath>
  </defs>
</svg>