<svg width="5" height="5" color="blue" viewBox="0 0 14 14" fill="none" xmlns="http://www.w3.org/2000/svg">
<g clip-path="url(#clip0_1823_560)">
<path d="M7.69037 1.36787L13.1598 6.69851C13.1801 6.72728 13.2033 6.75438 13.2294 6.77933C13.2754 6.82333 13.3171 6.89148 13.3377 6.97968C13.3582 7.06791 13.3541 7.1618 13.327 7.24557C13.2999 7.32925 13.2546 7.38941 13.2087 7.42552C13.1642 7.4606 13.1209 7.47238 13.0848 7.472L13.0848 7.47197H13.079H12.395C12.0912 7.47197 11.845 7.71821 11.845 8.02197V13.0796C11.845 13.0982 11.8417 13.1152 11.8366 13.1293C11.8333 13.1384 11.8296 13.1452 11.8265 13.1499H9.42351C9.42038 13.1452 9.41668 13.1384 9.41335 13.1293C9.40826 13.1152 9.40498 13.0982 9.40498 13.0796V9.96663C9.40498 9.74149 9.32722 9.51334 9.17083 9.33495C9.01239 9.15424 8.78079 9.03607 8.52134 9.03607H6.30592C6.04647 9.03607 5.81487 9.15424 5.65644 9.33495C5.50004 9.51334 5.42228 9.74149 5.42228 9.96663V13.0796C5.42228 13.0982 5.41901 13.1152 5.41391 13.1293C5.41058 13.1384 5.40688 13.1452 5.40375 13.1499H3.00081C2.99768 13.1452 2.99398 13.1384 2.99065 13.1293C2.98556 13.1152 2.98229 13.0982 2.98229 13.0796V8.02197C2.98229 7.71821 2.73604 7.47197 2.43229 7.47197H1.73497C1.72843 7.47197 1.7219 7.47208 1.71537 7.47232C1.6904 7.47321 1.66276 7.46787 1.63346 7.45273C1.60363 7.43731 1.57041 7.41067 1.54037 7.36904L1.54043 7.369L1.53494 7.36165C1.50753 7.32497 1.48412 7.27878 1.4689 7.22475C1.45368 7.17072 1.44768 7.11238 1.452 7.05385C1.45633 6.99532 1.47069 6.94045 1.49245 6.89266C1.5142 6.84491 1.54192 6.80725 1.57084 6.77964L1.57085 6.77965L1.57382 6.77678L7.15573 1.36902L7.15711 1.36768C7.24269 1.28419 7.33808 1.24992 7.42364 1.24992C7.5092 1.24992 7.6046 1.28419 7.69017 1.36768L7.69037 1.36787Z" stroke="black" stroke-opacity="0.65" stroke-width="1.1" stroke-linecap="round" stroke-linejoin="round"/>
</g>
<defs>
<clipPath id="clip0_1823_560">
<rect width="13" height="13" fill="white" color="blue"  transform="translate(0.900635 0.699921)"/>
</clipPath>
</defs>
</svg>
