<svg width="16" height="16" viewBox="0 0 16 16" fill="none" xmlns="http://www.w3.org/2000/svg">
<path d="M14 4.52174C13.7256 4.52158 13.4541 4.58043 13.2025 4.6946C12.9508 4.80878 12.7244 4.97584 12.5374 5.18537C12.3503 5.39489 12.2067 5.64238 12.1154 5.9124C12.0241 6.18242 11.9871 6.46918 12.0067 6.75478L10.6533 7.22783C10.4389 6.80443 10.1335 6.43847 9.76115 6.15851C9.38878 5.87855 8.95945 5.69217 8.50667 5.61391V4.1113C8.9343 3.99225 9.31239 3.72938 9.58236 3.36341C9.85233 2.99744 9.99912 2.54879 10 2.08696C10 0.932174 9.10667 0 8 0C6.89333 0 6 0.932174 6 2.08696C6 3.06087 6.64 3.87478 7.5 4.1113V5.61391C6.56667 5.77391 5.78 6.38609 5.35333 7.22783L3.99333 6.75478C4 6.70609 4 6.65739 4 6.6087C4 5.45391 3.10667 4.52174 2 4.52174C0.893333 4.52174 0 5.45391 0 6.6087C0 7.76348 0.893333 8.69565 2 8.69565C2.70667 8.69565 3.32 8.31304 3.68 7.74261L5.03333 8.21565C4.9 9.11304 5.14667 10.0661 5.76 10.7826L4.82 12.0139C4.56667 11.8887 4.29333 11.8261 4 11.8261C2.89333 11.8261 2 12.7583 2 13.913C2 15.0678 2.89333 16 4 16C5.10667 16 6 15.0678 6 13.913C6 13.44 5.85333 13.0087 5.6 12.6609L6.54 11.4296C7.44667 11.9583 8.55333 11.9513 9.45333 11.4296L10.3933 12.6609C10.1467 13.0087 10 13.44 10 13.913C10 15.0678 10.8933 16 12 16C13.1067 16 14 15.0678 14 13.913C14 12.7583 13.1067 11.8261 12 11.8261C11.7067 11.8261 11.4333 11.8887 11.18 12.007L10.24 10.7757C10.5358 10.4307 10.7545 10.0215 10.8802 9.57751C11.0059 9.13356 11.0354 8.66602 10.9667 8.2087L12.32 7.73565C12.6733 8.30609 13.2933 8.6887 14 8.6887C15.1067 8.6887 16 7.75652 16 6.60174C16 5.44696 15.1067 4.52174 14 4.52174ZM2 7.30435C1.63333 7.30435 1.33333 6.9913 1.33333 6.6087C1.33333 6.22609 1.63333 5.91304 2 5.91304C2.36667 5.91304 2.66667 6.22609 2.66667 6.6087C2.66667 6.9913 2.36667 7.30435 2 7.30435ZM4 14.6087C3.63333 14.6087 3.33333 14.2957 3.33333 13.913C3.33333 13.5304 3.63333 13.2174 4 13.2174C4.36667 13.2174 4.66667 13.5304 4.66667 13.913C4.66667 14.2957 4.36667 14.6087 4 14.6087ZM7.33333 2.08696C7.33333 1.70435 7.63333 1.3913 8 1.3913C8.36667 1.3913 8.66667 1.70435 8.66667 2.08696C8.66667 2.46957 8.36667 2.78261 8 2.78261C7.63333 2.78261 7.33333 2.46957 7.33333 2.08696ZM8 10.4348C7.55797 10.4348 7.13405 10.2516 6.82149 9.9254C6.50893 9.59925 6.33333 9.1569 6.33333 8.69565C6.33333 8.23441 6.50893 7.79205 6.82149 7.4659C7.13405 7.13975 7.55797 6.95652 8 6.95652C8.44203 6.95652 8.86595 7.13975 9.17851 7.4659C9.49107 7.79205 9.66667 8.23441 9.66667 8.69565C9.66667 9.1569 9.49107 9.59925 9.17851 9.9254C8.86595 10.2516 8.44203 10.4348 8 10.4348ZM12 13.2174C12.3667 13.2174 12.6667 13.5304 12.6667 13.913C12.6667 14.2957 12.3667 14.6087 12 14.6087C11.6333 14.6087 11.3333 14.2957 11.3333 13.913C11.3333 13.5304 11.6333 13.2174 12 13.2174ZM14 7.30435C13.6333 7.30435 13.3333 6.9913 13.3333 6.6087C13.3333 6.22609 13.6333 5.91304 14 5.91304C14.3667 5.91304 14.6667 6.22609 14.6667 6.6087C14.6667 6.9913 14.3667 7.30435 14 7.30435Z" fill="black"/>
</svg>
